<?xml version="1.0" encoding="utf-8"?>
<!-- Generator: Adobe Illustrator 19.2.1, SVG Export Plug-In . SVG Version: 6.00 Build 0)  -->
<svg version="1.1" id="layer" xmlns="http://www.w3.org/2000/svg" xmlns:xlink="http://www.w3.org/1999/xlink" x="0px" y="0px"
	 viewBox="0 0 652 652" style="enable-background:new 0 0 652 652;" xml:space="preserve">
<style type="text/css">
	.st0{fill:#747679;}
	.st1{fill:#BED600;}
	.st2{fill:#FFFFFF;}
</style>
<g>
	<g>
		<path class="st0" d="M329.9,276.4h16.1v14.5h-16.1V276.4z M329.9,299.3h16.1v60.8h-16.1V299.3z"/>
		<path class="st0" d="M370.6,309h0.4c3.7-6.9,7.8-10.4,14.9-10.4c1.8,0,2.8,0.1,3.8,0.5v14.1h-0.4c-10.6-1.1-18.1,4.5-18.1,17.3
			v29.6h-16.1v-60.8h15.5V309z"/>
		<path class="st0" d="M421.1,276.4h16.1v14.5h-16.1V276.4z M421.1,299.3h16.1v60.8h-16.1V299.3z"/>
		<path class="st0" d="M462,307.6h0.4c4.1-6.5,9.7-10,18-10c12.6,0,21,9.5,21,22.8v39.7h-16.1v-37.3c0-6.5-3.8-11.1-10.6-11.1
			c-7.1,0-12.3,5.7-12.3,14v34.5h-16.1v-60.8H462L462,307.6L462,307.6z"/>
		<path class="st0" d="M508,329.7c0-18,12.2-32,30-32c19.6,0,30,14.9,30,36.6h-44.1c1.2,9.4,6.4,15.2,15.5,15.2
			c6.3,0,10-2.8,11.7-7.5H567c-2.3,10.8-11.9,19.9-27.5,19.9C519.4,361.9,508,347.8,508,329.7z M524.1,323.2h27
			c-0.5-7.7-5.6-13-12.9-13C529.7,310.1,525.5,315.2,524.1,323.2z"/>
		<path class="st0" d="M571.7,340.5h14.9c1.1,7,6,10.1,13.3,10.1c7.1,0,11.1-2.7,11.1-7c0-5.8-7.7-6.4-16-8.1
			c-10.9-2.1-21.6-5.1-21.6-18.4c0-13.2,10.9-19.4,24.8-19.4c16,0,24.9,7.9,26.1,20.2h-14.6c-0.7-6.5-4.9-8.9-11.7-8.9
			c-6.3,0-10.4,2.4-10.4,6.8c0,5.2,8.1,5.7,16.7,7.5c10.2,2.1,21.5,5,21.5,19.2c0,12.2-10.4,19.6-25.6,19.6
			C582.5,361.9,572.7,353.4,571.7,340.5z"/>
		<path class="st0" d="M291.9,276.4h-18.8l-33.9,83.7h19.2l6.3-17.2h34.6l6.4,17.2H325L291.9,276.4z M269.3,328.8l12.4-35.6
			l12.8,35.6L269.3,328.8L269.3,328.8z"/>
		<rect x="396" y="276.4" class="st0" width="16.1" height="83.7"/>
	</g>
	<g>
		<path class="st1" d="M218.3,326.7c0,53.2-43.1,96.2-96.2,96.2c-53.2,0-96.3-43.1-96.3-96.2s43.1-96.3,96.3-96.3
			C175.2,230.4,218.3,273.5,218.3,326.7"/>
		<path class="st2" d="M115,276.4c-15.2,0-25,0.8-32.1,3.5c-12,4.7-20.2,14.4-20.2,27.3c0,10.7,5,18.4,19.4,27.3
			c15.4,9.3,18.4,12.4,18.4,18c0,6.1-6,13.1-21.5,13.1c-5.4,0-13.6-0.7-18.8-2l-2.5-0.6c-1.4,3.7-4.5,12.5-5.5,15.7l2.5,0.7
			c4.7,1.5,15.8,2.7,23.8,2.7c26.5,0,42.3-16,42.3-32.8c0-10.3-4.7-18.1-20.5-28c-7.9-4.9-12-8-14.4-10.5c-2-2.6-2.2-4.5-2.2-6.5
			c0-1.9,0.4-4.1,1.7-5.7c1.4-2,3.9-3.3,7.3-4.3c3.5-1.2,10-1.2,20-1.2h9.4l6.7-16.7L115,276.4L115,276.4z M185.9,276.4h-47.1
			l-6.7,16.7h15.6c10.5,0,12.5-0.2,15.2-0.2c-3.8,8.7-26.8,67.2-26.8,67.2h19.4c0,0,29.1-72.8,32.1-80.4
			C188.5,278,188.1,276.4,185.9,276.4z"/>
	</g>
</g>
</svg>
